<svg width="32" height="32" viewBox="0 0 32 32" fill="none" xmlns="http://www.w3.org/2000/svg">
<g filter="url(#filter0_d)">
<path d="M16 2.163C19.204 2.163 19.584 2.175 20.85 2.233C24.102 2.381 25.621 3.924 25.769 7.152C25.827 8.417 25.838 8.797 25.838 12.001C25.838 15.206 25.826 15.585 25.769 16.85C25.62 20.075 24.105 21.621 20.85 21.769C19.584 21.827 19.206 21.839 16 21.839C12.796 21.839 12.416 21.827 11.151 21.769C7.891 21.62 6.38 20.07 6.232 16.849C6.174 15.584 6.162 15.205 6.162 12C6.162 8.796 6.175 8.417 6.232 7.151C6.381 3.924 7.896 2.38 11.151 2.232C12.417 2.175 12.796 2.163 16 2.163V2.163ZM16 0C12.741 0 12.333 0.014 11.053 0.072C6.695 0.272 4.273 2.69 4.073 7.052C4.014 8.333 4 8.741 4 12C4 15.259 4.014 15.668 4.072 16.948C4.272 21.306 6.69 23.728 11.052 23.928C12.333 23.986 12.741 24 16 24C19.259 24 19.668 23.986 20.948 23.928C25.302 23.728 27.73 21.31 27.927 16.948C27.986 15.668 28 15.259 28 12C28 8.741 27.986 8.333 27.928 7.053C27.732 2.699 25.311 0.273 20.949 0.073C19.668 0.014 19.259 0 16 0V0ZM16 5.838C12.597 5.838 9.838 8.597 9.838 12C9.838 15.403 12.597 18.163 16 18.163C19.403 18.163 22.162 15.404 22.162 12C22.162 8.597 19.403 5.838 16 5.838ZM16 16C13.791 16 12 14.21 12 12C12 9.791 13.791 8 16 8C18.209 8 20 9.791 20 12C20 14.21 18.209 16 16 16ZM22.406 4.155C21.61 4.155 20.965 4.8 20.965 5.595C20.965 6.39 21.61 7.035 22.406 7.035C23.201 7.035 23.845 6.39 23.845 5.595C23.845 4.8 23.201 4.155 22.406 4.155Z" fill="white"/>
</g>
<defs>
<filter id="filter0_d" x="0" y="0" width="32" height="32" filterUnits="userSpaceOnUse" color-interpolation-filters="sRGB">
<feFlood flood-opacity="0" result="BackgroundImageFix"/>
<feColorMatrix in="SourceAlpha" type="matrix" values="0 0 0 0 0 0 0 0 0 0 0 0 0 0 0 0 0 0 127 0"/>
<feOffset dy="4"/>
<feGaussianBlur stdDeviation="2"/>
<feColorMatrix type="matrix" values="0 0 0 0 0 0 0 0 0 0 0 0 0 0 0 0 0 0 0.25 0"/>
<feBlend mode="normal" in2="BackgroundImageFix" result="effect1_dropShadow"/>
<feBlend mode="normal" in="SourceGraphic" in2="effect1_dropShadow" result="shape"/>
</filter>
</defs>
</svg>
