<svg width="114" height="462" viewBox="0 0 114 462" fill="none" xmlns="http://www.w3.org/2000/svg">
<g filter="url(#filter0_d)">
<path d="M61.5 1C61.8118 1 61.9413 1.40511 61.9833 1.74164C61.9951 1.83682 62 1.92651 62 2L65.5 4.5L64.5 6.5L60.5 11V29.5H62V37.5L60.5 39.5L62 51C63 56.8333 64.7 68.7 63.5 69.5V86H89.9505C96.3003 86.6685 109 88.3063 109 89.5096C109 90.7128 102.822 94.0219 99.7327 95.526C96.1287 94.5232 89.1267 92.3172 89.9505 91.515C90.7743 90.7128 85.1452 89.5096 82.2277 89.0082H63.1782V94.5232L65.2376 99.5369V184.268L98.1881 203.821L98.703 251.451L64.7228 271.004L63.1782 426.929L57 453L50.8218 426.929L49.2772 271.004L15.297 251.451L15.8119 203.821L48.7624 184.268V99.5369L50.8218 94.5232V89.0082H31.7723C28.8548 89.5096 23.2257 90.7128 24.0495 91.515C24.8733 92.3172 17.8713 94.5232 14.2673 95.526C11.1782 94.0219 5 90.7128 5 89.5096C5 88.3063 17.6997 86.6685 24.0495 86H50V69.5C48.8 68.7 50.5 56.8333 51.5 51L53 39.5L51.5 37.5V29.5H53V11L49 6.5L48 4.5L51.5 2C51.5 1.92651 51.5049 1.83682 51.5167 1.74164C51.5587 1.40511 51.6882 1 52 1H53H60.5H61.5Z" fill="white"/>
<path d="M51 2L53 1H61.5C61.9 1 62 1.66667 62 2L65.5 4.5L64.5 6.5L60.5 11V29.5H62V37.5L60.5 39.5L62 51C63 56.8333 64.7 68.7 63.5 69.5V86H90M89.9505 86C96.3003 86.6685 109 88.3063 109 89.5096C109 90.7128 102.822 94.0219 99.7327 95.526C96.1287 94.5232 89.1267 92.3172 89.9505 91.515C90.7743 90.7128 85.1452 89.5096 82.2277 89.0082H63.1782V94.5232L65.2376 99.5369V184.268L98.1881 203.821L98.703 251.451L64.7228 271.004L63.1782 426.929L57 453L50.8218 426.929L49.2772 271.004L15.297 251.451L15.8119 203.821L48.7624 184.268V99.5369L50.8218 94.5232V89.0082H31.7723C28.8548 89.5096 23.2257 90.7128 24.0495 91.515C24.8733 92.3172 17.8713 94.5232 14.2673 95.526C11.1782 94.0219 5 90.7128 5 89.5096C5 88.3063 17.6997 86.6685 24.0495 86M62.5 2L60.5 1H52C51.6 1 51.5 1.66667 51.5 2L48 4.5L49 6.5L53 11V29.5H51.5V37.5L53 39.5L51.5 51C50.5 56.8333 48.8 68.7 50 69.5V86H23.5" stroke="white"/>
</g>
<defs>
<filter id="filter0_d" x="0.5" y="0.5" width="113" height="460.615" filterUnits="userSpaceOnUse" color-interpolation-filters="sRGB">
<feFlood flood-opacity="0" result="BackgroundImageFix"/>
<feColorMatrix in="SourceAlpha" type="matrix" values="0 0 0 0 0 0 0 0 0 0 0 0 0 0 0 0 0 0 127 0"/>
<feOffset dy="4"/>
<feGaussianBlur stdDeviation="2"/>
<feColorMatrix type="matrix" values="0 0 0 0 0 0 0 0 0 0 0 0 0 0 0 0 0 0 0.25 0"/>
<feBlend mode="normal" in2="BackgroundImageFix" result="effect1_dropShadow"/>
<feBlend mode="normal" in="SourceGraphic" in2="effect1_dropShadow" result="shape"/>
</filter>
</defs>
</svg>
